<svg id="Calque_1" data-name="Calque 1" xmlns="http://www.w3.org/2000/svg" xmlns:xlink="http://www.w3.org/1999/xlink" viewBox="0 0 566.93 566.93"><defs><style>.cls-1{fill:url(#Dégradé_sans_nom_8);}.cls-2{fill:url(#Dégradé_sans_nom_15);}.cls-3{fill:url(#Dégradé_sans_nom_8-2);}.cls-4{fill:url(#Dégradé_sans_nom_8-3);}.cls-5{fill:url(#Dégradé_sans_nom_8-4);}.cls-6{clip-path:url(#clip-path);}</style><linearGradient id="Dégradé_sans_nom_8" x1="114.94" y1="399.19" x2="451.03" y2="399.19" gradientUnits="userSpaceOnUse"><stop offset="0" stop-color="#22354b"/><stop offset="1" stop-color="#243d59"/></linearGradient><linearGradient id="Dégradé_sans_nom_15" y1="283.46" x2="566.93" y2="283.46" gradientUnits="userSpaceOnUse"><stop offset="0" stop-color="#b7d7e3"/><stop offset="1" stop-color="#cbe0e6"/></linearGradient><linearGradient id="Dégradé_sans_nom_8-2" x1="114.94" y1="321.96" x2="451.03" y2="321.96" xlink:href="#Dégradé_sans_nom_8"/><linearGradient id="Dégradé_sans_nom_8-3" x1="114.94" y1="295.1" x2="451.03" y2="295.1" xlink:href="#Dégradé_sans_nom_8"/><linearGradient id="Dégradé_sans_nom_8-4" x1="114.94" y1="268.24" x2="451.03" y2="268.24" xlink:href="#Dégradé_sans_nom_8"/><clipPath id="clip-path" transform="translate(-0.23 -0.08)"><path class="cls-1" d="M434.78,409.26H132.6a10.07,10.07,0,0,1,0-20.14H434.78a10.07,10.07,0,1,1,0,20.14Z"/></clipPath></defs><title>GRAPHIQUE</title><rect class="cls-2" width="566.93" height="566.93" rx="283.46" ry="283.46"/><path class="cls-3" d="M226.22,378.65H126.28v-86.9a26.49,26.49,0,0,1,26.47-26.47h47a26.49,26.49,0,0,1,26.47,26.47Zm-80.58-19.36h61.22V291.75a7.12,7.12,0,0,0-7.11-7.11h-47a7.12,7.12,0,0,0-7.11,7.11Z" transform="translate(-0.23 -0.08)"/><path class="cls-4" d="M333.66,378.65H233.72V238a26.49,26.49,0,0,1,26.47-26.47h47A26.49,26.49,0,0,1,333.66,238Zm-80.58-19.36H314.3V238a7.12,7.12,0,0,0-7.11-7.11h-47a7.12,7.12,0,0,0-7.11,7.11Z" transform="translate(-0.23 -0.08)"/><path class="cls-5" d="M441.11,378.65H341.16V184.3a26.51,26.51,0,0,1,26.47-26.47h47a26.51,26.51,0,0,1,26.47,26.47Zm-80.58-19.36h61.21v-175a7.11,7.11,0,0,0-7.1-7.1h-47a7.11,7.11,0,0,0-7.1,7.1Z" transform="translate(-0.23 -0.08)"/><path class="cls-1" d="M434.78,409.26H132.6a10.07,10.07,0,0,1,0-20.14H434.78a10.07,10.07,0,1,1,0,20.14Z" transform="translate(-0.23 -0.08)"/><g class="cls-6"><rect class="cls-1" x="122.3" y="389.03" width="9.64" height="20.15"/><rect class="cls-1" x="131.94" y="389.03" width="21.75" height="20.15"/><rect class="cls-1" x="153.68" y="389.03" width="21.75" height="20.15"/><rect class="cls-1" x="175.43" y="389.03" width="21.75" height="20.15"/><rect class="cls-1" x="197.17" y="389.03" width="21.75" height="20.15"/><rect class="cls-1" x="218.92" y="389.03" width="21.75" height="20.15"/><rect class="cls-1" x="240.66" y="389.03" width="21.75" height="20.15"/><rect class="cls-1" x="262.41" y="389.03" width="21.75" height="20.15"/><rect class="cls-1" x="284.15" y="389.03" width="21.75" height="20.15"/><rect class="cls-1" x="305.9" y="389.03" width="21.75" height="20.15"/><rect class="cls-1" x="327.64" y="389.03" width="21.75" height="20.15"/><rect class="cls-1" x="349.39" y="389.03" width="21.75" height="20.15"/><rect class="cls-1" x="371.13" y="389.03" width="21.75" height="20.15"/><rect class="cls-1" x="392.88" y="389.03" width="21.75" height="20.15"/><rect class="cls-1" x="414.62" y="389.03" width="21.75" height="20.15"/><rect class="cls-1" x="436.37" y="389.03" width="8.26" height="20.15"/></g></svg>