<svg id="Calque_1" data-name="Calque 1" xmlns="http://www.w3.org/2000/svg" xmlns:xlink="http://www.w3.org/1999/xlink" viewBox="0 0 566.93 566.93"><defs><style>.cls-1{fill:url(#Dégradé_sans_nom_15);}.cls-2{fill:url(#Dégradé_sans_nom_2);}</style><linearGradient id="Dégradé_sans_nom_15" y1="283.46" x2="566.93" y2="283.46" gradientUnits="userSpaceOnUse"><stop offset="0" stop-color="#b7d7e3"/><stop offset="1" stop-color="#cbe0e6"/></linearGradient><linearGradient id="Dégradé_sans_nom_2" x1="131.25" y1="279.99" x2="420.09" y2="279.99" gradientUnits="userSpaceOnUse"><stop offset="0" stop-color="#22354b"/><stop offset="1" stop-color="#243d59"/></linearGradient></defs><title>PERFORMANCE</title><rect class="cls-1" width="566.93" height="566.93" rx="283.46" ry="283.46"/><path class="cls-2" d="M169.71,424.43a38.49,38.49,0,0,1-27.21-65.7L292.14,209.09,273,190a31.85,31.85,0,0,1,22.52-54.39h92.71a31.9,31.9,0,0,1,31.86,31.87v92.7a31.79,31.79,0,0,1-19.66,29.44,32.14,32.14,0,0,1-12.2,2.43,31.57,31.57,0,0,1-22.56-9.38l-19.11-19.11L196.93,413.15A38.25,38.25,0,0,1,169.71,424.43ZM295.52,159.56A7.86,7.86,0,0,0,290,173l36.13,36.13L159.47,375.7A14.48,14.48,0,1,0,180,396.18L346.56,229.57l36.11,36.11a7.85,7.85,0,0,0,13.42-5.55v-92.7a7.88,7.88,0,0,0-7.86-7.87Z" transform="translate(-0.2 -0.24)"/></svg>