<svg id="Calque_1" data-name="Calque 1" xmlns="http://www.w3.org/2000/svg" xmlns:xlink="http://www.w3.org/1999/xlink" viewBox="0 0 566.93 566.93"><defs><style>.cls-1{fill:url(#Dégradé_sans_nom_15);}.cls-2{fill:url(#Dégradé_sans_nom_8);}.cls-3{fill:url(#Dégradé_sans_nom_8-2);}</style><linearGradient id="Dégradé_sans_nom_15" y1="283.46" x2="566.93" y2="283.46" gradientUnits="userSpaceOnUse"><stop offset="0" stop-color="#b7d7e3"/><stop offset="1" stop-color="#cbe0e6"/></linearGradient><linearGradient id="Dégradé_sans_nom_8" x1="145.69" y1="283.39" x2="412.71" y2="283.39" gradientUnits="userSpaceOnUse"><stop offset="0" stop-color="#22354b"/><stop offset="1" stop-color="#243d59"/></linearGradient><linearGradient id="Dégradé_sans_nom_8-2" x1="145.69" y1="250.3" x2="412.71" y2="250.3" xlink:href="#Dégradé_sans_nom_8"/></defs><title>REGION</title><rect class="cls-1" width="566.93" height="566.93" rx="283.46" ry="283.46"/><path class="cls-2" d="M283.45,454.39a12,12,0,0,1-9.1-4.21l-100.45-118a108.61,108.61,0,0,1-20-33.1C138,257,144,209.45,169.94,171.85c26.1-37.79,67.48-59.46,113.51-59.46S370.86,134.06,397,171.85c26,37.6,32,85.19,16,127.32a108.91,108.91,0,0,1-20,33.05l-100.42,118A12,12,0,0,1,283.45,454.39Zm0-318.09c-38.06,0-72.26,17.91-93.84,49.15s-26.51,70.49-13.36,105.27a85.61,85.61,0,0,0,15.8,25.91L283.45,424,374.8,316.7a.18.18,0,0,1,.05-.07,85.6,85.6,0,0,0,15.78-25.83A114.29,114.29,0,0,0,377.3,185.45C355.72,154.21,321.51,136.3,283.45,136.3Z" transform="translate(0.02 0.08)"/><path class="cls-3" d="M283.45,317.27a67,67,0,1,1,67-67A67,67,0,0,1,283.45,317.27Zm0-110A43.05,43.05,0,1,0,326.5,250.3,43.11,43.11,0,0,0,283.45,207.25Z" transform="translate(0.02 0.08)"/></svg>