<svg id="Calque_1" data-name="Calque 1" xmlns="http://www.w3.org/2000/svg" xmlns:xlink="http://www.w3.org/1999/xlink" viewBox="0 0 343 293.29"><defs><style>.cls-1{fill:url(#Dégradé_sans_nom_15);}</style><linearGradient id="Dégradé_sans_nom_15" x1="112.02" y1="283.4" x2="455.02" y2="283.4" gradientUnits="userSpaceOnUse"><stop offset="0" stop-color="#b7d7e3"/><stop offset="1" stop-color="#cbe0e6"/></linearGradient></defs><title>COMPARAISON</title><path class="cls-1" d="M449.93,313.27,410.8,229.46l16.89,4.85a7,7,0,1,0,3.86-13.43l-117.43-33.7c0-.5,0-1,0-1.51a30.62,30.62,0,0,0-57.36-14.94L139.35,137a7,7,0,0,0-3.85,13.44l23.18,6.65-42,89.9a7,7,0,0,0-4.68,6.59,56,56,0,0,0,95.72,39.55,55.4,55.4,0,0,0,16.71-39.55,7,7,0,0,0-5.09-6.72l-39-83.55,72.58,20.82c0,.5,0,1,0,1.51a30.68,30.68,0,0,0,23.65,29.82v138.4H257.25c-15.41,0-28.22,12.37-28.22,27.78v4.05a28.17,28.17,0,0,0-22.36,27.39v9.78a7.37,7.37,0,0,0,7.26,7.16H353.11a7.39,7.39,0,0,0,7.27-7.16v-9.78A28.17,28.17,0,0,0,338,385.72v-4.05c0-15.41-12.82-27.78-28.22-27.78H290.51V215.49a30.77,30.77,0,0,0,19.74-14.88l79.09,22.69-42.07,90.1a7,7,0,0,0-4.68,6.59,56,56,0,0,0,95.71,39.54A55.36,55.36,0,0,0,455,320a7,7,0,0,0-5.09-6.72ZM168.06,169.71l35.75,76.58h-71.5Zm0,125.63a41.77,41.77,0,0,1-41.48-35.08h83.28a42.39,42.39,0,0,1-41.8,35.08ZM346.41,413.11v3H220.64v-3a14.09,14.09,0,0,1,14.25-13.81h97.26c7.71,0,14.26,6.1,14.26,13.81Zm-22.36-31.44v3.66H243v-3.66a14.09,14.09,0,0,1,14.25-13.81H309.8a14.09,14.09,0,0,1,14.25,13.81ZM283.52,202.33a16.67,16.67,0,1,1,16.19-12.75,7.85,7.85,0,0,0-.39,1.36,16.69,16.69,0,0,1-15.8,11.39ZM434.38,312.67h-71.5l35.75-76.58Zm-35.75,49.05a41.78,41.78,0,0,1-41.48-35.08h83.28a42.39,42.39,0,0,1-41.8,35.08Z" transform="translate(-112.02 -136.76)"/></svg>