<svg id="Calque_1" data-name="Calque 1" xmlns="http://www.w3.org/2000/svg" xmlns:xlink="http://www.w3.org/1999/xlink" viewBox="0 0 322.33 251.43"><defs><style>.cls-1{fill:url(#Dégradé_sans_nom_15);}.cls-2{fill:url(#Dégradé_sans_nom_15-2);}.cls-3{fill:url(#Dégradé_sans_nom_15-3);}.cls-4{fill:url(#Dégradé_sans_nom_15-4);}.cls-5{clip-path:url(#clip-path);}</style><linearGradient id="Dégradé_sans_nom_15" x1="121.16" y1="398.19" x2="437.47" y2="398.19" gradientUnits="userSpaceOnUse"><stop offset="0" stop-color="#b7d7e3"/><stop offset="1" stop-color="#cbe0e6"/></linearGradient><linearGradient id="Dégradé_sans_nom_15-2" x1="121.16" y1="320.96" x2="437.47" y2="320.96" xlink:href="#Dégradé_sans_nom_15"/><linearGradient id="Dégradé_sans_nom_15-3" x1="121.16" y1="294.1" x2="437.47" y2="294.1" xlink:href="#Dégradé_sans_nom_15"/><linearGradient id="Dégradé_sans_nom_15-4" x1="121.16" y1="267.24" x2="437.47" y2="267.24" xlink:href="#Dégradé_sans_nom_15"/><clipPath id="clip-path" transform="translate(-122.53 -156.83)"><path class="cls-1" d="M434.78,408.26H132.6a10.07,10.07,0,0,1,0-20.14H434.78a10.07,10.07,0,1,1,0,20.14Z"/></clipPath></defs><title>GRAPHIQUE</title><path class="cls-2" d="M226.22,377.65H126.28v-86.9a26.49,26.49,0,0,1,26.47-26.47h47a26.49,26.49,0,0,1,26.47,26.47Zm-80.58-19.36h61.22V290.75a7.12,7.12,0,0,0-7.11-7.11h-47a7.12,7.12,0,0,0-7.11,7.11Z" transform="translate(-122.53 -156.83)"/><path class="cls-3" d="M333.66,377.65H233.72V237a26.49,26.49,0,0,1,26.47-26.47h47A26.49,26.49,0,0,1,333.66,237Zm-80.58-19.36H314.3V237a7.12,7.12,0,0,0-7.11-7.11h-47a7.12,7.12,0,0,0-7.11,7.11Z" transform="translate(-122.53 -156.83)"/><path class="cls-4" d="M441.11,377.65H341.16V183.3a26.51,26.51,0,0,1,26.47-26.47h47a26.51,26.51,0,0,1,26.47,26.47Zm-80.58-19.36h61.21v-175a7.11,7.11,0,0,0-7.1-7.1h-47a7.11,7.11,0,0,0-7.1,7.1Z" transform="translate(-122.53 -156.83)"/><path class="cls-1" d="M434.78,408.26H132.6a10.07,10.07,0,0,1,0-20.14H434.78a10.07,10.07,0,1,1,0,20.14Z" transform="translate(-122.53 -156.83)"/><g class="cls-5"><rect class="cls-1" y="231.28" width="9.64" height="20.15"/><rect class="cls-1" x="9.64" y="231.28" width="21.75" height="20.15"/><rect class="cls-1" x="31.38" y="231.28" width="21.75" height="20.15"/><rect class="cls-1" x="53.13" y="231.28" width="21.75" height="20.15"/><rect class="cls-1" x="74.87" y="231.28" width="21.75" height="20.15"/><rect class="cls-1" x="96.62" y="231.28" width="21.75" height="20.15"/><rect class="cls-1" x="118.36" y="231.28" width="21.75" height="20.15"/><rect class="cls-1" x="140.11" y="231.28" width="21.75" height="20.15"/><rect class="cls-1" x="161.85" y="231.28" width="21.75" height="20.15"/><rect class="cls-1" x="183.6" y="231.28" width="21.75" height="20.15"/><rect class="cls-1" x="205.34" y="231.28" width="21.75" height="20.15"/><rect class="cls-1" x="227.09" y="231.28" width="21.75" height="20.15"/><rect class="cls-1" x="248.83" y="231.28" width="21.75" height="20.15"/><rect class="cls-1" x="270.58" y="231.28" width="21.75" height="20.15"/><rect class="cls-1" x="292.32" y="231.28" width="21.75" height="20.15"/><rect class="cls-1" x="314.07" y="231.28" width="8.26" height="20.15"/></g></svg>