<svg id="Calque_1" data-name="Calque 1" xmlns="http://www.w3.org/2000/svg" xmlns:xlink="http://www.w3.org/1999/xlink" viewBox="0 0 318.46 343.46"><defs><style>.cls-1{fill:url(#Dégradé_sans_nom_15);}.cls-2{fill:url(#Dégradé_sans_nom_15-2);}</style><linearGradient id="Dégradé_sans_nom_15" x1="156.72" y1="285.31" x2="318.46" y2="285.31" gradientUnits="userSpaceOnUse"><stop offset="0" stop-color="#b7d7e3"/><stop offset="1" stop-color="#cbe0e6"/></linearGradient><linearGradient id="Dégradé_sans_nom_15-2" x1="152.42" y1="249.65" x2="400.07" y2="249.65" xlink:href="#Dégradé_sans_nom_15"/></defs><title>LOGIN</title><polygon class="cls-1" points="217.03 308.09 174.44 266.56 156.72 284.73 216.94 343.46 318.46 245.42 300.82 227.16 217.03 308.09"/><path class="cls-2" d="M278.06,290.39c.65,0,1.29,0,1.94,0s1.29,0,1.94,0a102.29,102.29,0,0,1,97.58,78.8l20.55-19.85q-1.17-3.24-2.52-6.44a128,128,0,0,0-67.05-67.52,93.44,93.44,0,0,0,14.66-11.95,92.15,92.15,0,1,0-130.32,0,93.44,93.44,0,0,0,14.66,11.95,127.46,127.46,0,0,0-77.08,117.19v.61h25.39c0-.21,0-.41,0-.61A102.2,102.2,0,0,1,278.06,290.39Zm-64.83-92.13A66.77,66.77,0,1,1,282,265l-2,0-2,0A66.85,66.85,0,0,1,213.23,198.26Z" transform="translate(-152.42 -106.11)"/></svg>