<svg id="Calque_1" data-name="Calque 1" xmlns="http://www.w3.org/2000/svg" xmlns:xlink="http://www.w3.org/1999/xlink" viewBox="0 0 295.43 368.9"><defs><style>.cls-1{fill:url(#Dégradé_sans_nom_15);}.cls-2{fill:url(#Dégradé_sans_nom_15-2);}</style><linearGradient id="Dégradé_sans_nom_15" x1="171.51" y1="305.79" x2="295.43" y2="305.79" gradientUnits="userSpaceOnUse"><stop offset="0" stop-color="#b7d7e3"/><stop offset="1" stop-color="#cbe0e6"/></linearGradient><linearGradient id="Dégradé_sans_nom_15-2" x1="135.45" y1="241.65" x2="381.29" y2="241.65" xlink:href="#Dégradé_sans_nom_15"/></defs><title>LOGOUT</title><polygon class="cls-1" points="295.43 260.38 277.25 242.67 233.47 287.6 189.69 242.67 171.51 260.38 215.75 305.79 171.51 351.19 189.69 368.9 233.47 323.97 277.25 368.9 295.43 351.19 251.19 305.79 295.43 260.38"/><path class="cls-2" d="M348.29,328.17l20.63,21.17,12.37-12.71c-.23-.58-.47-1.15-.71-1.73a127.93,127.93,0,0,0-67.06-67.52,93.51,93.51,0,0,0,14.67-11.95,92.15,92.15,0,1,0-130.32,0,93.44,93.44,0,0,0,14.66,11.95,127.46,127.46,0,0,0-77.08,117.19v.61h25.39c0-.21,0-.41,0-.61A102.18,102.18,0,0,1,261.09,282.39c.65,0,1.29,0,1.94,0s1.29,0,1.93,0a102.48,102.48,0,0,1,83.33,45.78ZM265,257l-2,0-2,0a66.76,66.76,0,1,1,3.92,0Z" transform="translate(-135.45 -98.11)"/></svg>