<svg id="Calque_1" data-name="Calque 1" xmlns="http://www.w3.org/2000/svg" xmlns:xlink="http://www.w3.org/1999/xlink" viewBox="0 0 276.69 342"><defs><style>.cls-1{fill:url(#Dégradé_sans_nom_15);}.cls-2{fill:url(#Dégradé_sans_nom_15-2);}</style><linearGradient id="Dégradé_sans_nom_15" x1="133.36" y1="282.39" x2="417.37" y2="282.39" gradientUnits="userSpaceOnUse"><stop offset="0" stop-color="#b7d7e3"/><stop offset="1" stop-color="#cbe0e6"/></linearGradient><linearGradient id="Dégradé_sans_nom_15-2" x1="133.36" y1="249.3" x2="417.37" y2="249.3" xlink:href="#Dégradé_sans_nom_15"/></defs><title>REGION</title><path class="cls-1" d="M283.45,453.39a12,12,0,0,1-9.1-4.21l-100.45-118a108.61,108.61,0,0,1-20-33.1C138,256,144,208.45,169.94,170.85c26.1-37.79,67.48-59.46,113.51-59.46S370.86,133.06,397,170.85c26,37.6,32,85.19,16,127.32a108.91,108.91,0,0,1-20,33.05l-100.42,118A12,12,0,0,1,283.45,453.39Zm0-318.09c-38.06,0-72.26,17.91-93.84,49.15s-26.51,70.49-13.36,105.27a85.61,85.61,0,0,0,15.8,25.91L283.45,423,374.8,315.7a.18.18,0,0,1,.05-.07,85.6,85.6,0,0,0,15.78-25.83A114.29,114.29,0,0,0,377.3,184.45C355.72,153.21,321.51,135.3,283.45,135.3Z" transform="translate(-145.1 -111.39)"/><path class="cls-2" d="M283.45,316.27a67,67,0,1,1,67-67A67,67,0,0,1,283.45,316.27Zm0-110A43.05,43.05,0,1,0,326.5,249.3,43.11,43.11,0,0,0,283.45,206.25Z" transform="translate(-145.1 -111.39)"/></svg>