<svg id="Calque_1" data-name="Calque 1" xmlns="http://www.w3.org/2000/svg" xmlns:xlink="http://www.w3.org/1999/xlink" viewBox="0 0 310.5 279.5"><defs><style>.cls-1{fill:url(#Dégradé_sans_nom_15);}</style><linearGradient id="Dégradé_sans_nom_15" x1="128.33" y1="282.91" x2="438.83" y2="282.91" gradientUnits="userSpaceOnUse"><stop offset="0" stop-color="#b7d7e3"/><stop offset="1" stop-color="#cbe0e6"/></linearGradient></defs><title>STATS</title><path class="cls-1" d="M407.84,143.16a31,31,0,0,0-22.33,52.53L328.8,309.17a25.75,25.75,0,0,0-3.76-.36,30.94,30.94,0,0,0-11.71,2.31l-44-49.56a31,31,0,1,0-58.11-14.92,30.83,30.83,0,0,0,7.64,20.14L164.91,361.1a27.93,27.93,0,0,0-5.52-.55,31.49,31.49,0,1,0,23.41,10.92l53.86-94.32a29.27,29.27,0,0,0,17.17-1.76l44,49.56a31,31,0,1,0,49.43-6.56L404,204.91a25.89,25.89,0,0,0,3.76.36,31.06,31.06,0,0,0,.07-62.11Z" transform="translate(-128.33 -143.16)"/></svg>