<svg xmlns="http://www.w3.org/2000/svg" viewBox="0 0 609.16 265.62"><defs><style>.cls-1{isolation:isolate;}.cls-2,.cls-3,.cls-4,.cls-5{mix-blend-mode:multiply;}.cls-3{fill:#cae1e7;}.cls-4{fill:#243e5a;}.cls-5{fill:#73a4b5;}.cls-6{fill:#fff;}</style></defs><title>LOGO-THECLOUDPRICES.COM</title><g class="cls-1"><g id="Calque_1" data-name="Calque 1"><g class="cls-2"><circle class="cls-3" cx="258.31" cy="110.09" r="70.61"/><circle class="cls-4" cx="352.03" cy="110.09" r="70.61"/></g><circle class="cls-5" cx="301.68" cy="70.61" r="70.61"/><path class="cls-6" d="M500,260.17a37.85,37.85,0,0,0-37.85-37.85,39,39,0,0,0-5.1.35,42.42,42.42,0,0,0-82.86,5.45,35.05,35.05,0,0,0,3.09,69.95h85.4V298A37.84,37.84,0,0,0,500,260.17Z" transform="translate(-116.09 -154.51)"/><path class="cls-4" d="M140,396.38a15.06,15.06,0,0,1-.86,5.3,9.62,9.62,0,0,1-2.46,3.76,10.35,10.35,0,0,1-3.79,2.22,16.3,16.3,0,0,1-9.71,0,10.31,10.31,0,0,1-3.8-2.22,9.72,9.72,0,0,1-2.45-3.76,14.84,14.84,0,0,1-.86-5.3V368.59h7v9.78h15.1v6.4h-15.1v11.61c0,2,.45,3.37,1.36,4.2a5.05,5.05,0,0,0,3.55,1.24,5.16,5.16,0,0,0,3.56-1.21c.91-.81,1.36-2.22,1.36-4.23v-.77H140Z" transform="translate(-116.09 -154.51)"/><path class="cls-4" d="M153.7,407.63h-7V365.57h7v16.71h.12a9.83,9.83,0,0,1,3.49-3.41,10,10,0,0,1,5.1-1.27,14.16,14.16,0,0,1,4.92.86,11.78,11.78,0,0,1,4.2,2.63,12.81,12.81,0,0,1,2.93,4.59,18.57,18.57,0,0,1,1.1,6.73v15.22h-7.05V392.41q0-4.21-2-6.22a8,8,0,0,0-10.73.06q-2.07,2.07-2.07,6.16Z" transform="translate(-116.09 -154.51)"/><path class="cls-4" d="M188.77,395.49v.12a8.17,8.17,0,0,0,2.87,4.67,8.51,8.51,0,0,0,5.48,1.72c3.16,0,5.47-.92,6.93-2.78h7.52a13.92,13.92,0,0,1-5.45,6.69,16,16,0,0,1-9,2.49,16.76,16.76,0,0,1-6.37-1.16,15.2,15.2,0,0,1-5-3.19,14.18,14.18,0,0,1-3.26-4.89,16.94,16.94,0,0,1,0-12.32,14,14,0,0,1,3.26-4.89,15.23,15.23,0,0,1,5-3.2,18.13,18.13,0,0,1,12.71,0,14.18,14.18,0,0,1,8.14,8.09,16.2,16.2,0,0,1,1.16,6.16v2.49ZM197.12,384a8.61,8.61,0,0,0-5.24,1.54,7.93,7.93,0,0,0-2.93,4.2v.12h16.34v-.12a7.87,7.87,0,0,0-3-4.2A8.64,8.64,0,0,0,197.12,384Z" transform="translate(-116.09 -154.51)"/><path class="cls-4" d="M241.19,389.33a7.9,7.9,0,0,0-3.05-3.76,8.85,8.85,0,0,0-5-1.4,8.29,8.29,0,0,0-6.27,2.46,9.75,9.75,0,0,0,0,12.74,8.28,8.28,0,0,0,6.27,2.45,8.84,8.84,0,0,0,5-1.39,7.9,7.9,0,0,0,3.05-3.76h7.11a14.62,14.62,0,0,1-1.87,4.77,13.89,13.89,0,0,1-3.29,3.7,14.7,14.7,0,0,1-4.5,2.4,17.2,17.2,0,0,1-5.51.86,16.67,16.67,0,0,1-6.36-1.16,15.14,15.14,0,0,1-5-3.19,14.32,14.32,0,0,1-3.26-4.89,17.07,17.07,0,0,1,0-12.32,14.13,14.13,0,0,1,3.26-4.89,15.17,15.17,0,0,1,5-3.2,18.12,18.12,0,0,1,11.87-.29,14.7,14.7,0,0,1,4.5,2.4,13.89,13.89,0,0,1,3.29,3.7,14.62,14.62,0,0,1,1.87,4.77Z" transform="translate(-116.09 -154.51)"/><path class="cls-4" d="M255.11,407.63V365.57h7.05v42.06Z" transform="translate(-116.09 -154.51)"/><path class="cls-4" d="M300.48,393a16.23,16.23,0,0,1-1.15,6.16,14.32,14.32,0,0,1-3.26,4.89,15.07,15.07,0,0,1-5,3.19,18,18,0,0,1-12.7,0,15.14,15.14,0,0,1-5-3.19,14.32,14.32,0,0,1-3.26-4.89,17.07,17.07,0,0,1,0-12.32,14.13,14.13,0,0,1,3.26-4.89,15.17,15.17,0,0,1,5-3.2,18.11,18.11,0,0,1,12.7,0,15.09,15.09,0,0,1,5,3.2,14.13,14.13,0,0,1,3.26,4.89A16.19,16.19,0,0,1,300.48,393Zm-15.75,8.82a8.24,8.24,0,0,0,6.25-2.45,9.87,9.87,0,0,0,0-12.74,9.21,9.21,0,0,0-12.53,0,9.75,9.75,0,0,0,0,12.74A8.31,8.31,0,0,0,284.73,401.82Z" transform="translate(-116.09 -154.51)"/><path class="cls-4" d="M328.15,378.37h7v15.22a18.26,18.26,0,0,1-1,6.43,12.74,12.74,0,0,1-2.93,4.62,12.34,12.34,0,0,1-4.57,2.81,17.59,17.59,0,0,1-5.92.95,18.11,18.11,0,0,1-5.92-.92,11.91,11.91,0,0,1-4.56-2.78,12.59,12.59,0,0,1-2.94-4.65,18.51,18.51,0,0,1-1-6.46V378.37h7v15.22q0,4.21,2,6.22a8.23,8.23,0,0,0,10.78,0c1.34-1.34,2-3.41,2-6.22Z" transform="translate(-116.09 -154.51)"/><path class="cls-4" d="M372.39,392.76a17.36,17.36,0,0,1-1.15,6.46,14.49,14.49,0,0,1-3.2,4.94,13.61,13.61,0,0,1-5,3.14,17.81,17.81,0,0,1-6.34,1.1,16.67,16.67,0,0,1-6.36-1.16,15.14,15.14,0,0,1-5-3.19,14.32,14.32,0,0,1-3.26-4.89A16.23,16.23,0,0,1,341,393a16.57,16.57,0,0,1,1.27-6.78,14.63,14.63,0,0,1,3.32-4.8,13.36,13.36,0,0,1,4.65-2.87,15,15,0,0,1,5.21-.95,12.53,12.53,0,0,1,5.84,1.3,10.07,10.07,0,0,1,3.94,3.56h.11V365.57h7.05Zm-15.64,9.06a8.21,8.21,0,0,0,6.25-2.45,9.84,9.84,0,0,0,0-12.74,8.22,8.22,0,0,0-6.25-2.46,8.31,8.31,0,0,0-6.27,2.46,9.75,9.75,0,0,0,0,12.74A8.3,8.3,0,0,0,356.75,401.82Z" transform="translate(-116.09 -154.51)"/><path class="cls-4" d="M395.2,386.78a2.88,2.88,0,0,0-1.31-2.19,5.6,5.6,0,0,0-3.25-.83,5.45,5.45,0,0,0-3.53.95,3,3,0,0,0-1.15,2.42A1.86,1.86,0,0,0,387.2,389a13.24,13.24,0,0,0,3.14.83c1.26.2,2.62.4,4.06.59a13.9,13.9,0,0,1,4.06,1.19,8.17,8.17,0,0,1,3.13,2.54,7.68,7.68,0,0,1,1.25,4.68,8.73,8.73,0,0,1-.86,3.85,8.52,8.52,0,0,1-2.46,3.05,11.65,11.65,0,0,1-3.88,2,17.09,17.09,0,0,1-5.06.71,16.81,16.81,0,0,1-5-.71,12.14,12.14,0,0,1-3.85-2,8.94,8.94,0,0,1-2.49-3,8.56,8.56,0,0,1-.94-3.79h7.1a2.91,2.91,0,0,0,1.34,2.37,6.58,6.58,0,0,0,3.76.89,6.73,6.73,0,0,0,4.06-.95,3,3,0,0,0,1.21-2.49,1.8,1.8,0,0,0-1.24-1.8,13,13,0,0,0-3.14-.77l-4.06-.57a14.48,14.48,0,0,1-4.06-1.15,7.77,7.77,0,0,1-3.14-2.58,8,8,0,0,1-1.24-4.8,8.72,8.72,0,0,1,.83-3.82,8.89,8.89,0,0,1,2.34-3,10.76,10.76,0,0,1,3.67-2,15.51,15.51,0,0,1,4.83-.71,15.32,15.32,0,0,1,4.8.71,11.21,11.21,0,0,1,3.64,1.95,8.93,8.93,0,0,1,2.34,2.91,8.59,8.59,0,0,1,.89,3.61Z" transform="translate(-116.09 -154.51)"/><path class="cls-4" d="M408.7,393.24a17.09,17.09,0,0,1,1.16-6.43,14.35,14.35,0,0,1,3.2-4.92,14.19,14.19,0,0,1,4.91-3.17,17.36,17.36,0,0,1,6.37-1.12,17,17,0,0,1,6.34,1.15,15.15,15.15,0,0,1,5,3.2,14.13,14.13,0,0,1,3.26,4.89A16.2,16.2,0,0,1,440.1,393a16.57,16.57,0,0,1-1.28,6.78,14.6,14.6,0,0,1-3.31,4.8,13.55,13.55,0,0,1-4.65,2.87,15.25,15.25,0,0,1-5.22.95,12.62,12.62,0,0,1-5.83-1.3,10,10,0,0,1-3.94-3.56h-.12v16.59H408.7Zm15.64-9.07a8.22,8.22,0,0,0-6.25,2.46,9.84,9.84,0,0,0,0,12.74,8.21,8.21,0,0,0,6.25,2.45,8.31,8.31,0,0,0,6.28-2.45,9.75,9.75,0,0,0,0-12.74A8.31,8.31,0,0,0,424.34,384.17Z" transform="translate(-116.09 -154.51)"/><path class="cls-4" d="M464.56,390.93v-.3q0-3.56-1.6-5a6.82,6.82,0,0,0-8.41,0q-1.6,1.45-1.6,5v17H445.9v-17a16.1,16.1,0,0,1,1-5.78,10.45,10.45,0,0,1,6.69-6.45,17.4,17.4,0,0,1,10.43,0,10.5,10.5,0,0,1,4,2.43,10.78,10.78,0,0,1,2.61,4.08,16.77,16.77,0,0,1,.92,5.84v.18Z" transform="translate(-116.09 -154.51)"/><path class="cls-4" d="M481,374.87a4.64,4.64,0,0,1-4.68-4.68,4.57,4.57,0,0,1,1.36-3.37,4.76,4.76,0,0,1,6.66,0,4.63,4.63,0,0,1,1.34,3.37,4.56,4.56,0,0,1-1.34,3.32A4.47,4.47,0,0,1,481,374.87Zm-3.5,32.76V378.37h7.05v29.26Z" transform="translate(-116.09 -154.51)"/><path class="cls-4" d="M515.2,389.33a7.9,7.9,0,0,0-3.05-3.76,8.84,8.84,0,0,0-5-1.4,8.31,8.31,0,0,0-6.28,2.46,9.75,9.75,0,0,0,0,12.74,8.31,8.31,0,0,0,6.28,2.45,8.83,8.83,0,0,0,5-1.39,7.9,7.9,0,0,0,3.05-3.76h7.11a14.61,14.61,0,0,1-1.86,4.77,14.07,14.07,0,0,1-3.29,3.7,14.81,14.81,0,0,1-4.5,2.4,17.24,17.24,0,0,1-5.51.86,16.76,16.76,0,0,1-6.37-1.16,15.25,15.25,0,0,1-5-3.19,14.29,14.29,0,0,1-3.25-4.89,16.94,16.94,0,0,1,0-12.32A14.11,14.11,0,0,1,495.8,382a15.27,15.27,0,0,1,5-3.2,18.15,18.15,0,0,1,11.88-.29,14.81,14.81,0,0,1,4.5,2.4,14.07,14.07,0,0,1,3.29,3.7,14.61,14.61,0,0,1,1.86,4.77Z" transform="translate(-116.09 -154.51)"/><path class="cls-4" d="M534.34,395.49v.12a8.17,8.17,0,0,0,2.87,4.67,8.51,8.51,0,0,0,5.48,1.72c3.16,0,5.47-.92,6.93-2.78h7.52a13.92,13.92,0,0,1-5.45,6.69,16,16,0,0,1-9,2.49,16.76,16.76,0,0,1-6.37-1.16,15.25,15.25,0,0,1-5-3.19,14.29,14.29,0,0,1-3.25-4.89,16.94,16.94,0,0,1,0-12.32,14.11,14.11,0,0,1,3.25-4.89,15.27,15.27,0,0,1,5-3.2,18.13,18.13,0,0,1,12.71,0,14.18,14.18,0,0,1,8.14,8.09,16.2,16.2,0,0,1,1.16,6.16v2.49ZM542.69,384a8.59,8.59,0,0,0-5.24,1.54,8,8,0,0,0-2.94,4.2v.12h16.35v-.12a7.87,7.87,0,0,0-3-4.2A8.64,8.64,0,0,0,542.69,384Z" transform="translate(-116.09 -154.51)"/><path class="cls-4" d="M580,386.78a2.88,2.88,0,0,0-1.31-2.19,5.6,5.6,0,0,0-3.25-.83,5.45,5.45,0,0,0-3.53.95,3,3,0,0,0-1.15,2.42A1.86,1.86,0,0,0,572,389a13.24,13.24,0,0,0,3.14.83c1.26.2,2.62.4,4.06.59a13.75,13.75,0,0,1,4.05,1.19,8.2,8.2,0,0,1,3.14,2.54,7.68,7.68,0,0,1,1.25,4.68,8.73,8.73,0,0,1-.86,3.85,8.52,8.52,0,0,1-2.46,3.05,11.75,11.75,0,0,1-3.88,2,17.09,17.09,0,0,1-5.06.71,16.81,16.81,0,0,1-5-.71,12.14,12.14,0,0,1-3.85-2,8.94,8.94,0,0,1-2.49-3A8.56,8.56,0,0,1,563,399h7.1a2.91,2.91,0,0,0,1.34,2.37,6.58,6.58,0,0,0,3.76.89,6.73,6.73,0,0,0,4.06-.95,3,3,0,0,0,1.21-2.49,1.81,1.81,0,0,0-1.24-1.8,13,13,0,0,0-3.14-.77l-4.06-.57a14.39,14.39,0,0,1-4.06-1.15,7.77,7.77,0,0,1-3.14-2.58,8,8,0,0,1-1.24-4.8,8.72,8.72,0,0,1,.83-3.82,8.89,8.89,0,0,1,2.34-3,10.76,10.76,0,0,1,3.67-2,15.51,15.51,0,0,1,4.83-.71,15.21,15.21,0,0,1,4.79.71,11.16,11.16,0,0,1,3.65,1.95,9.06,9.06,0,0,1,2.34,2.91,8.59,8.59,0,0,1,.89,3.61Z" transform="translate(-116.09 -154.51)"/><path class="cls-5" d="M597.66,408.4a3,3,0,0,1-2.14-.89,3,3,0,0,1,2.14-5.15,2.8,2.8,0,0,1,2.07.89,3,3,0,0,1,0,4.26A2.84,2.84,0,0,1,597.66,408.4Z" transform="translate(-116.09 -154.51)"/><path class="cls-5" d="M634.38,388.5a10.43,10.43,0,0,0-4.08-5.27,12.09,12.09,0,0,0-6.94-2,12.45,12.45,0,0,0-4.76.89,10.84,10.84,0,0,0-3.71,2.46,11.18,11.18,0,0,0-2.39,3.7,13.16,13.16,0,0,0,0,9.36,11.18,11.18,0,0,0,2.39,3.7,10.84,10.84,0,0,0,3.71,2.46,12.45,12.45,0,0,0,4.76.89,12.09,12.09,0,0,0,6.94-2,10.43,10.43,0,0,0,4.08-5.27h4a14.67,14.67,0,0,1-2,4.44,13.75,13.75,0,0,1-3.32,3.44,15.61,15.61,0,0,1-4.41,2.22,17.17,17.17,0,0,1-5.31.8,16.67,16.67,0,0,1-6.36-1.16,15.14,15.14,0,0,1-5-3.19,14.32,14.32,0,0,1-3.26-4.89,17.07,17.07,0,0,1,0-12.32A14.13,14.13,0,0,1,612,382a15.17,15.17,0,0,1,5-3.2,18.1,18.1,0,0,1,11.67-.35,15.61,15.61,0,0,1,4.41,2.22,13.88,13.88,0,0,1,3.32,3.43,14.83,14.83,0,0,1,2,4.45Z" transform="translate(-116.09 -154.51)"/><path class="cls-5" d="M674.66,393a16.23,16.23,0,0,1-1.15,6.16,14.32,14.32,0,0,1-3.26,4.89,15.07,15.07,0,0,1-5,3.19,18,18,0,0,1-12.7,0,15.14,15.14,0,0,1-5-3.19,14.32,14.32,0,0,1-3.26-4.89,17.07,17.07,0,0,1,0-12.32,14.13,14.13,0,0,1,3.26-4.89,15.17,15.17,0,0,1,5-3.2,18.11,18.11,0,0,1,12.7,0,15.09,15.09,0,0,1,5,3.2,14.13,14.13,0,0,1,3.26,4.89A16.19,16.19,0,0,1,674.66,393ZM658.9,404.73a12.47,12.47,0,0,0,4.77-.89,10.94,10.94,0,0,0,3.71-2.46,11.18,11.18,0,0,0,2.39-3.7,13.16,13.16,0,0,0,0-9.36,11.18,11.18,0,0,0-2.39-3.7,10.94,10.94,0,0,0-3.71-2.46,13.2,13.2,0,0,0-9.53,0,10.84,10.84,0,0,0-3.71,2.46,11.36,11.36,0,0,0-2.4,3.7,13.31,13.31,0,0,0,0,9.36,11.36,11.36,0,0,0,2.4,3.7,10.84,10.84,0,0,0,3.71,2.46A12.45,12.45,0,0,0,658.9,404.73Z" transform="translate(-116.09 -154.51)"/><path class="cls-5" d="M700.9,407.63V390.51q0-4.62-2.37-6.93a8.14,8.14,0,0,0-5.92-2.31,8,8,0,0,0-5.87,2.28q-2.31,2.28-2.31,7v17.12h-4V390.51a16.63,16.63,0,0,1,.88-5.69,11.06,11.06,0,0,1,2.49-4,10.26,10.26,0,0,1,3.76-2.4,13.31,13.31,0,0,1,4.71-.8,12.13,12.13,0,0,1,6.31,1.63,10.22,10.22,0,0,1,4.18,4.82h.12a9.89,9.89,0,0,1,4.11-4.82,12.25,12.25,0,0,1,6.37-1.63,13.31,13.31,0,0,1,4.71.8,10.26,10.26,0,0,1,3.76,2.4,10.8,10.8,0,0,1,2.49,4,16.62,16.62,0,0,1,.89,5.69v17.12h-4V390.51q0-4.68-2.31-7a8.68,8.68,0,0,0-11.76,0q-2.34,2.31-2.34,6.93v17.12Z" transform="translate(-116.09 -154.51)"/></g></g></svg>