<svg id="Calque_1" data-name="Calque 1" xmlns="http://www.w3.org/2000/svg" xmlns:xlink="http://www.w3.org/1999/xlink" viewBox="0 0 288.84 288.86"><defs><style>.cls-1{fill:url(#Dégradé_sans_nom_8);}</style><linearGradient id="Dégradé_sans_nom_8" x1="141.4" y1="282.99" x2="430.23" y2="282.99" gradientUnits="userSpaceOnUse"><stop offset="0" stop-color="#22354b"/><stop offset="1" stop-color="#243d59"/></linearGradient></defs><title>PERFORMANCE</title><path class="cls-1" d="M179.86,427.43a38.49,38.49,0,0,1-27.22-65.7L302.28,212.09,283.14,193a31.85,31.85,0,0,1,22.53-54.39h92.7a31.9,31.9,0,0,1,31.86,31.87v92.7a31.79,31.79,0,0,1-19.65,29.44A32.23,32.23,0,0,1,398.37,295a31.53,31.53,0,0,1-22.55-9.38l-19.11-19.11L207.07,416.15A38.25,38.25,0,0,1,179.86,427.43ZM305.67,162.56a7.86,7.86,0,0,0-5.58,13.4l36.13,36.13L169.62,378.7a14.48,14.48,0,1,0,20.48,20.48L356.71,232.57l36.1,36.11a7.85,7.85,0,0,0,13.42-5.55v-92.7a7.88,7.88,0,0,0-7.86-7.87Z" transform="translate(-141.4 -138.56)"/></svg>