<svg id="Calque_1" data-name="Calque 1" xmlns="http://www.w3.org/2000/svg" xmlns:xlink="http://www.w3.org/1999/xlink" viewBox="0 0 276.69 342"><defs><style>.cls-1{fill:url(#Dégradé_sans_nom_8);}.cls-2{fill:url(#Dégradé_sans_nom_8-2);}</style><linearGradient id="Dégradé_sans_nom_8" x1="146.69" y1="283.39" x2="413.71" y2="283.39" gradientUnits="userSpaceOnUse"><stop offset="0" stop-color="#22354b"/><stop offset="1" stop-color="#243d59"/></linearGradient><linearGradient id="Dégradé_sans_nom_8-2" x1="146.69" y1="250.3" x2="413.71" y2="250.3" xlink:href="#Dégradé_sans_nom_8"/></defs><title>REGION</title><path class="cls-1" d="M284.45,454.39a12,12,0,0,1-9.1-4.21l-100.45-118a108.61,108.61,0,0,1-20-33.1C139,257,145,209.45,170.94,171.85c26.1-37.79,67.48-59.46,113.51-59.46S371.86,134.06,398,171.85c26,37.6,32,85.19,16,127.32a108.91,108.91,0,0,1-20,33.05l-100.42,118A12,12,0,0,1,284.45,454.39Zm0-318.09c-38.06,0-72.26,17.91-93.84,49.15s-26.51,70.49-13.36,105.27a85.61,85.61,0,0,0,15.8,25.91L284.45,424,375.8,316.7a.18.18,0,0,1,.05-.07,85.6,85.6,0,0,0,15.78-25.83A114.29,114.29,0,0,0,378.3,185.45C356.72,154.21,322.51,136.3,284.45,136.3Z" transform="translate(-146.1 -112.39)"/><path class="cls-2" d="M284.45,317.27a67,67,0,1,1,67-67A67,67,0,0,1,284.45,317.27Zm0-110A43.05,43.05,0,1,0,327.5,250.3,43.11,43.11,0,0,0,284.45,207.25Z" transform="translate(-146.1 -112.39)"/></svg>