<svg id="Calque_1" data-name="Calque 1" xmlns="http://www.w3.org/2000/svg" xmlns:xlink="http://www.w3.org/1999/xlink" viewBox="0 0 566.93 566.93"><defs><style>.cls-1{fill:url(#Dégradé_sans_nom_8);}.cls-2{fill:url(#Dégradé_sans_nom_15);}.cls-3{fill:url(#Dégradé_sans_nom_15-2);}</style><linearGradient id="Dégradé_sans_nom_8" y1="283.46" x2="566.93" y2="283.46" gradientUnits="userSpaceOnUse"><stop offset="0" stop-color="#22354b"/><stop offset="1" stop-color="#243d59"/></linearGradient><linearGradient id="Dégradé_sans_nom_15" x1="308.79" y1="391.19" x2="470.53" y2="391.19" gradientUnits="userSpaceOnUse"><stop offset="0" stop-color="#b7d7e3"/><stop offset="1" stop-color="#cbe0e6"/></linearGradient><linearGradient id="Dégradé_sans_nom_15-2" x1="152.42" y1="249.65" x2="400.07" y2="249.65" xlink:href="#Dégradé_sans_nom_15"/></defs><title>LOGIN</title><rect class="cls-1" width="566.93" height="566.93" rx="283.46" ry="283.46"/><polygon class="cls-2" points="369.1 413.97 326.52 372.43 308.79 390.6 369.02 449.34 470.53 351.3 452.9 333.04 369.1 413.97"/><path class="cls-3" d="M278.06,290.39c.65,0,1.29,0,1.94,0s1.29,0,1.94,0a102.29,102.29,0,0,1,97.58,78.8l20.55-19.85q-1.17-3.24-2.52-6.44a128,128,0,0,0-67.05-67.52,93.44,93.44,0,0,0,14.66-11.95,92.15,92.15,0,1,0-130.32,0,93.44,93.44,0,0,0,14.66,11.95,127.46,127.46,0,0,0-77.08,117.19v.61h25.39c0-.21,0-.41,0-.61A102.2,102.2,0,0,1,278.06,290.39Zm-64.83-92.13A66.77,66.77,0,1,1,282,265l-2,0-2,0A66.85,66.85,0,0,1,213.23,198.26Z" transform="translate(-0.34 -0.24)"/></svg>