<svg id="Calque_1" data-name="Calque 1" xmlns="http://www.w3.org/2000/svg" xmlns:xlink="http://www.w3.org/1999/xlink" viewBox="0 0 566.93 566.93"><defs><style>.cls-1{fill:url(#Dégradé_sans_nom_8);}.cls-2{fill:url(#Dégradé_sans_nom_15);}.cls-3{fill:url(#Dégradé_sans_nom_15-2);}</style><linearGradient id="Dégradé_sans_nom_8" y1="283.46" x2="566.93" y2="283.46" gradientUnits="userSpaceOnUse"><stop offset="0" stop-color="#22354b"/><stop offset="1" stop-color="#243d59"/></linearGradient><linearGradient id="Dégradé_sans_nom_15" x1="326.61" y1="411.66" x2="450.53" y2="411.66" gradientUnits="userSpaceOnUse"><stop offset="0" stop-color="#b7d7e3"/><stop offset="1" stop-color="#cbe0e6"/></linearGradient><linearGradient id="Dégradé_sans_nom_15-2" x1="155.45" y1="249.65" x2="401.29" y2="249.65" xlink:href="#Dégradé_sans_nom_15"/></defs><title>LOGOUT</title><rect class="cls-1" width="566.93" height="566.93" rx="283.46" ry="283.46"/><polygon class="cls-2" points="450.53 366.26 432.35 348.55 388.57 393.48 344.79 348.55 326.61 366.26 370.85 411.66 326.61 457.06 344.79 474.78 388.57 429.85 432.35 474.78 450.53 457.06 406.29 411.66 450.53 366.26"/><path class="cls-3" d="M368.29,336.17l20.63,21.17,12.37-12.71c-.23-.58-.47-1.15-.71-1.73a127.93,127.93,0,0,0-67.06-67.52,93.51,93.51,0,0,0,14.67-11.95,92.15,92.15,0,1,0-130.32,0,93.44,93.44,0,0,0,14.66,11.95,127.46,127.46,0,0,0-77.08,117.19v.61h25.39c0-.21,0-.41,0-.61A102.18,102.18,0,0,1,281.09,290.39c.65,0,1.29,0,1.94,0s1.29,0,1.93,0a102.48,102.48,0,0,1,83.33,45.78ZM285,265l-2,0-2,0a66.76,66.76,0,1,1,3.92,0Z" transform="translate(-0.34 -0.24)"/></svg>