<svg id="Calque_1" data-name="Calque 1" xmlns="http://www.w3.org/2000/svg" xmlns:xlink="http://www.w3.org/1999/xlink" viewBox="0 0 566.93 566.93"><defs><style>.cls-1{fill:url(#Dégradé_sans_nom_8);}.cls-2{fill:url(#Dégradé_sans_nom_15);}</style><linearGradient id="Dégradé_sans_nom_8" y1="283.46" x2="566.93" y2="283.46" gradientUnits="userSpaceOnUse"><stop offset="0" stop-color="#22354b"/><stop offset="1" stop-color="#243d59"/></linearGradient><linearGradient id="Dégradé_sans_nom_15" x1="131.4" y1="279.99" x2="420.23" y2="279.99" gradientUnits="userSpaceOnUse"><stop offset="0" stop-color="#b7d7e3"/><stop offset="1" stop-color="#cbe0e6"/></linearGradient></defs><title>PERFORMANCE</title><rect class="cls-1" width="566.93" height="566.93" rx="283.46" ry="283.46"/><path class="cls-2" d="M169.86,424.43a38.49,38.49,0,0,1-27.22-65.7L292.28,209.09,273.14,190a31.85,31.85,0,0,1,22.53-54.39h92.7a31.9,31.9,0,0,1,31.86,31.87v92.7a31.79,31.79,0,0,1-19.65,29.44A32.23,32.23,0,0,1,388.37,292a31.53,31.53,0,0,1-22.55-9.38l-19.11-19.11L197.07,413.15A38.25,38.25,0,0,1,169.86,424.43ZM295.67,159.56a7.86,7.86,0,0,0-5.58,13.4l36.13,36.13L159.62,375.7a14.48,14.48,0,1,0,20.48,20.48L346.71,229.57l36.1,36.11a7.85,7.85,0,0,0,13.42-5.55v-92.7a7.88,7.88,0,0,0-7.86-7.87Z" transform="translate(-0.34 -0.24)"/></svg>