<svg id="Calque_1" data-name="Calque 1" xmlns="http://www.w3.org/2000/svg" xmlns:xlink="http://www.w3.org/1999/xlink" viewBox="0 0 566.93 566.93"><defs><style>.cls-1{fill:url(#Dégradé_sans_nom_8);}.cls-2{fill:url(#Dégradé_sans_nom_15);}</style><linearGradient id="Dégradé_sans_nom_8" y1="283.46" x2="566.93" y2="283.46" gradientUnits="userSpaceOnUse"><stop offset="0" stop-color="#22354b"/><stop offset="1" stop-color="#243d59"/></linearGradient><linearGradient id="Dégradé_sans_nom_15" x1="118.33" y1="274.91" x2="428.83" y2="274.91" gradientUnits="userSpaceOnUse"><stop offset="0" stop-color="#b7d7e3"/><stop offset="1" stop-color="#cbe0e6"/></linearGradient></defs><title>STATS</title><rect class="cls-1" width="566.93" height="566.93" rx="283.46" ry="283.46"/><path class="cls-2" d="M397.84,135.16a31,31,0,0,0-22.33,52.53L318.8,301.17a25.75,25.75,0,0,0-3.76-.36,30.94,30.94,0,0,0-11.71,2.31l-44-49.56a31,31,0,1,0-58.11-14.92,30.83,30.83,0,0,0,7.64,20.14L154.91,353.1a27.93,27.93,0,0,0-5.52-.55,31.49,31.49,0,1,0,23.41,10.92l53.86-94.32a29.27,29.27,0,0,0,17.17-1.76l44,49.56a31,31,0,1,0,49.43-6.56L394,196.91a25.89,25.89,0,0,0,3.76.36,31.06,31.06,0,0,0,.07-62.11Z" transform="translate(-0.34 -0.24)"/></svg>